<svg width="41" height="41" viewBox="0 0 41 41" fill="none" xmlns="http://www.w3.org/2000/svg">
<path d="M20.3215 15.4597C17.4543 15.4597 15.1145 17.7995 15.1145 20.6667C15.1145 23.5339 17.4543 25.8737 20.3215 25.8737C23.1887 25.8737 25.5285 23.5339 25.5285 20.6667C25.5285 17.7995 23.1887 15.4597 20.3215 15.4597ZM35.9387 20.6667C35.9387 18.5104 35.9582 16.3737 35.8371 14.2214C35.716 11.7214 35.1457 9.50262 33.3176 7.6745C31.4856 5.84247 29.2707 5.27606 26.7707 5.15497C24.6145 5.03388 22.4777 5.05341 20.3254 5.05341C18.1691 5.05341 16.0324 5.03388 13.8801 5.15497C11.3801 5.27606 9.16132 5.84638 7.3332 7.6745C5.50116 9.50653 4.93476 11.7214 4.81366 14.2214C4.69257 16.3776 4.7121 18.5143 4.7121 20.6667C4.7121 22.819 4.69257 24.9597 4.81366 27.112C4.93476 29.612 5.50507 31.8307 7.3332 33.6589C9.16523 35.4909 11.3801 36.0573 13.8801 36.1784C16.0363 36.2995 18.173 36.28 20.3254 36.28C22.4816 36.28 24.6184 36.2995 26.7707 36.1784C29.2707 36.0573 31.4895 35.487 33.3176 33.6589C35.1496 31.8268 35.716 29.612 35.8371 27.112C35.9621 24.9597 35.9387 22.8229 35.9387 20.6667V20.6667ZM20.3215 28.6784C15.8879 28.6784 12.3098 25.1003 12.3098 20.6667C12.3098 16.2331 15.8879 12.655 20.3215 12.655C24.7551 12.655 28.3332 16.2331 28.3332 20.6667C28.3332 25.1003 24.7551 28.6784 20.3215 28.6784ZM28.6613 14.1979C27.6262 14.1979 26.7902 13.362 26.7902 12.3268C26.7902 11.2917 27.6262 10.4557 28.6613 10.4557C29.6965 10.4557 30.5324 11.2917 30.5324 12.3268C30.5327 12.5726 30.4846 12.8161 30.3906 13.0432C30.2967 13.2704 30.1589 13.4768 29.9851 13.6506C29.8113 13.8244 29.6049 13.9622 29.3777 14.0561C29.1506 14.1501 28.9071 14.1982 28.6613 14.1979V14.1979Z" fill="#FF8D7C"/>
</svg>
