<svg width="33" height="33" viewBox="0 0 33 33" fill="none" xmlns="http://www.w3.org/2000/svg">
<g clip-path="url(#clip0_911_3647)">
<path d="M32.3281 4.45749C31.437 6.08921 30.3438 7.48018 29.0484 8.63038C29.0612 8.93886 29.0676 9.28752 29.0676 9.67637C29.0676 11.8369 28.8117 14 28.3 16.1657C27.7882 18.3314 27.0065 20.4044 25.9549 22.3847C24.9033 24.3649 23.6506 26.1192 22.1968 27.6476C20.7431 29.176 18.9956 30.3947 16.9544 31.3036C14.9133 32.2126 12.7257 32.667 10.3916 32.667C6.749 32.667 3.3945 31.4564 0.328125 29.0352C0.872371 29.1098 1.39435 29.1471 1.89406 29.1471C4.93718 29.1471 7.65517 27.9932 10.048 25.6854C8.62917 25.6534 7.35846 25.1157 6.23592 24.0723C5.11337 23.029 4.34087 21.6958 3.91839 20.0727C4.33598 20.1706 4.74812 20.2196 5.15483 20.2196C5.74025 20.2196 6.31629 20.1256 6.88296 19.9376C5.36876 19.5643 4.1126 18.6359 3.11448 17.1523C2.11639 15.6688 1.61735 13.9566 1.61735 12.0156V11.9156C2.54678 12.5491 3.53815 12.8861 4.59148 12.9265C3.69448 12.1903 2.98329 11.2304 2.45792 10.0465C1.93251 8.86274 1.66981 7.58165 1.66981 6.20328C1.66981 4.74956 1.96571 3.39588 2.55753 2.14222C4.2042 4.62984 6.19948 6.61802 8.54338 8.10677C10.8873 9.59554 13.4019 10.4224 16.0872 10.5872C15.9726 9.99963 15.9153 9.38646 15.9151 8.7477C15.9151 6.51738 16.5562 4.61302 17.8385 3.03461C19.1207 1.4562 20.6677 0.666992 22.4795 0.666992C24.3763 0.666992 25.974 1.51724 27.2725 3.21774C28.7562 2.85595 30.1455 2.20156 31.4402 1.25458C30.9414 3.18716 29.9802 4.67802 28.5566 5.72715C29.8651 5.53575 31.1222 5.11253 32.3281 4.45749H32.3281Z" fill="#FF8D7C"/>
</g>
<defs>
<clipPath id="clip0_911_3647">
<rect width="32" height="32" fill="white" transform="translate(0.328125 0.666992)"/>
</clipPath>
</defs>
</svg>
